<mxfile modified="2022-09-18T20:11:34.195Z" host="drawio-plugin" agent="5.0 (Windows NT 6.2; Win64; x64) AppleWebKit/537.36 (KHTML, like Gecko) Chrome/98.0.4758.102 Safari/537.36" etag="wMnpqI7aHMLm3pQTxdgu" version="15.5.4" type="embed"><diagram id="PKrw68s-FcHz-RrZCr9i" name="Page-1"><mxGraphModel dx="275" dy="760" grid="1" gridSize="10" guides="1" tooltips="1" connect="1" arrows="1" fold="1" page="1" pageScale="1" pageWidth="827" pageHeight="1169" math="0" shadow="0"><root><mxCell id="0"/><mxCell id="1" parent="0"/><mxCell id="3" value="" style="edgeStyle=orthogonalEdgeStyle;rounded=0;orthogonalLoop=1;jettySize=auto;html=1;" parent="1" source="Gvd8Ezxa3fLg7O33Pl0G-1" target="2" edge="1"><mxGeometry relative="1" as="geometry"/></mxCell><mxCell id="Gvd8Ezxa3fLg7O33Pl0G-1" value="Начало" style="rounded=1;whiteSpace=wrap;html=1;arcSize=50;" parent="1" vertex="1"><mxGeometry x="309.5" y="330" width="139" height="60" as="geometry"/></mxCell><mxCell id="Gvd8Ezxa3fLg7O33Pl0G-6" value="quicksort&lt;br&gt;Вход: массив A размера N.&lt;br&gt;Выход: упорядоченный массив." style="text;html=1;strokeColor=none;fillColor=none;align=center;verticalAlign=middle;whiteSpace=wrap;rounded=0;" parent="1" vertex="1"><mxGeometry x="520" y="340" width="250.5" height="40" as="geometry"/></mxCell><mxCell id="Gvd8Ezxa3fLg7O33Pl0G-37" value="Конец" style="rounded=1;whiteSpace=wrap;html=1;arcSize=50;" parent="1" vertex="1"><mxGeometry x="319" y="920" width="120" height="60" as="geometry"/></mxCell><mxCell id="7Xwj2gsnW8v6YeENi7_U-6" value="" style="shape=partialRectangle;whiteSpace=wrap;html=1;bottom=1;right=1;left=1;top=0;fillColor=none;routingCenterX=-0.5;rotation=90;" parent="1" vertex="1"><mxGeometry x="500" y="330" width="68" height="60" as="geometry"/></mxCell><mxCell id="7Xwj2gsnW8v6YeENi7_U-9" value="" style="endArrow=none;dashed=1;html=1;entryX=0.5;entryY=1;entryDx=0;entryDy=0;" parent="1" target="7Xwj2gsnW8v6YeENi7_U-6" edge="1"><mxGeometry width="50" height="50" relative="1" as="geometry"><mxPoint x="440" y="359.5" as="sourcePoint"/><mxPoint x="480" y="360" as="targetPoint"/></mxGeometry></mxCell><mxCell id="7" value="" style="edgeStyle=orthogonalEdgeStyle;rounded=0;orthogonalLoop=1;jettySize=auto;html=1;" parent="1" source="9delEhP6rtj-FSDuxbmw-2" target="9delEhP6rtj-FSDuxbmw-3" edge="1"><mxGeometry relative="1" as="geometry"/></mxCell><mxCell id="15" style="edgeStyle=orthogonalEdgeStyle;rounded=0;orthogonalLoop=1;jettySize=auto;html=1;exitX=0;exitY=0.5;exitDx=0;exitDy=0;entryX=0.5;entryY=0;entryDx=0;entryDy=0;" parent="1" source="9delEhP6rtj-FSDuxbmw-2" target="Gvd8Ezxa3fLg7O33Pl0G-37" edge="1"><mxGeometry relative="1" as="geometry"><mxPoint x="260" y="930" as="targetPoint"/><Array as="points"><mxPoint x="240" y="559"/><mxPoint x="240" y="900"/><mxPoint x="379" y="900"/></Array></mxGeometry></mxCell><mxCell id="9delEhP6rtj-FSDuxbmw-2" value="Stack == {}?" style="rhombus;whiteSpace=wrap;html=1;" parent="1" vertex="1"><mxGeometry x="309.5" y="530" width="139" height="57" as="geometry"/></mxCell><mxCell id="9" value="" style="edgeStyle=orthogonalEdgeStyle;rounded=0;orthogonalLoop=1;jettySize=auto;html=1;" parent="1" source="9delEhP6rtj-FSDuxbmw-3" target="8" edge="1"><mxGeometry relative="1" as="geometry"/></mxCell><mxCell id="9delEhP6rtj-FSDuxbmw-3" value="&lt;div&gt;r = Stack.pop()&lt;/div&gt;&lt;div&gt;l = Stack.pop()&lt;/div&gt;" style="rounded=0;whiteSpace=wrap;html=1;" parent="1" vertex="1"><mxGeometry x="308.5" y="630" width="141" height="50" as="geometry"/></mxCell><mxCell id="4" value="" style="edgeStyle=orthogonalEdgeStyle;rounded=0;orthogonalLoop=1;jettySize=auto;html=1;" parent="1" source="2" target="9delEhP6rtj-FSDuxbmw-2" edge="1"><mxGeometry relative="1" as="geometry"/></mxCell><mxCell id="2" value="Stack := {0, N - 1}" style="rounded=0;whiteSpace=wrap;html=1;" parent="1" vertex="1"><mxGeometry x="308.5" y="430" width="141" height="60" as="geometry"/></mxCell><mxCell id="11" value="" style="edgeStyle=orthogonalEdgeStyle;rounded=0;orthogonalLoop=1;jettySize=auto;html=1;" parent="1" source="8" target="10" edge="1"><mxGeometry relative="1" as="geometry"/></mxCell><mxCell id="8" value="pivot = partition(A, l, r)" style="whiteSpace=wrap;html=1;rounded=0;" parent="1" vertex="1"><mxGeometry x="308" y="720" width="142" height="60" as="geometry"/></mxCell><mxCell id="13" value="" style="edgeStyle=orthogonalEdgeStyle;rounded=0;orthogonalLoop=1;jettySize=auto;html=1;" parent="1" source="10" target="Gvd8Ezxa3fLg7O33Pl0G-37" edge="1"><mxGeometry relative="1" as="geometry"/></mxCell><mxCell id="14" style="edgeStyle=orthogonalEdgeStyle;rounded=0;orthogonalLoop=1;jettySize=auto;html=1;" parent="1" source="10" edge="1"><mxGeometry relative="1" as="geometry"><mxPoint x="379" y="530" as="targetPoint"/><Array as="points"><mxPoint x="520" y="850"/><mxPoint x="520" y="510"/><mxPoint x="379" y="510"/></Array></mxGeometry></mxCell><mxCell id="10" value="Stack.push(l, pivot - 1)&lt;br&gt;Stack.push(pivot + 1, r)" style="whiteSpace=wrap;html=1;rounded=0;" parent="1" vertex="1"><mxGeometry x="308" y="820" width="142" height="60" as="geometry"/></mxCell></root></mxGraphModel></diagram></mxfile>